<?xml version="1.0" encoding="UTF-8" standalone="no"?>
<svg
   aria-hidden="true"
   focusable="false"
   role="presentation"
   className="icon icon-theme-165"
   viewBox="0 0 24 24"
   version="1.1"
   id="svg6"
   sodipodi:docname="delete_ic.svg"
   xmlns:inkscape="http://www.inkscape.org/namespaces/inkscape"
   xmlns:sodipodi="http://sodipodi.sourceforge.net/DTD/sodipodi-0.dtd"
   xmlns="http://www.w3.org/2000/svg"
   xmlns:svg="http://www.w3.org/2000/svg">
  <defs
     id="defs10" />
  <sodipodi:namedview
     id="namedview8"
     pagecolor="#ffffff"
     bordercolor="#000000"
     borderopacity="0.25"
     inkscape:showpageshadow="2"
     inkscape:pageopacity="0.0"
     inkscape:pagecheckerboard="0"
     inkscape:deskcolor="#d1d1d1" />
  <g
     id="g4">
    <path
       d="M4.741,21.654c-0.124-0.124-0.186-0.271-0.186-0.439v-15h-1.25c-0.169,0-0.316-0.062-0.439-0.186   C2.742,5.906,2.68,5.76,2.68,5.59c0-0.169,0.062-0.315,0.186-0.439c0.124-0.123,0.27-0.186,0.439-0.186h5v-2.5   c0-0.169,0.062-0.315,0.186-0.439C8.614,1.902,8.761,1.84,8.93,1.84h6.25c0.169,0,0.315,0.063,0.439,0.186   c0.124,0.124,0.186,0.271,0.186,0.439v2.5h5c0.169,0,0.315,0.063,0.439,0.186c0.124,0.124,0.186,0.271,0.186,0.439   c0,0.17-0.062,0.316-0.186,0.439c-0.124,0.124-0.271,0.186-0.439,0.186h-1.25v15c0,0.169-0.062,0.315-0.186,0.439   c-0.124,0.124-0.271,0.186-0.439,0.186H5.18C5.011,21.84,4.864,21.778,4.741,21.654z M18.305,6.215h-12.5V20.59h12.5V6.215z    M9.37,9.525c0.124,0.124,0.186,0.271,0.186,0.439v6.875c0,0.17-0.062,0.316-0.186,0.439c-0.124,0.124-0.271,0.186-0.439,0.186   c-0.169,0-0.316-0.062-0.439-0.186c-0.124-0.123-0.186-0.27-0.186-0.439V9.965c0-0.169,0.062-0.315,0.186-0.439   C8.614,9.402,8.761,9.34,8.93,9.34C9.099,9.34,9.246,9.402,9.37,9.525z M9.555,4.965h5V3.09h-5V4.965z M12.495,9.525   c0.124,0.124,0.186,0.271,0.186,0.439v6.875c0,0.17-0.062,0.316-0.186,0.439c-0.124,0.124-0.271,0.186-0.439,0.186   c-0.169,0-0.316-0.062-0.439-0.186c-0.124-0.123-0.186-0.27-0.186-0.439V9.965c0-0.169,0.062-0.315,0.186-0.439   c0.124-0.123,0.27-0.186,0.439-0.186C12.224,9.34,12.371,9.402,12.495,9.525z M14.741,9.525c0.124-0.123,0.27-0.186,0.439-0.186   c0.169,0,0.315,0.063,0.439,0.186c0.124,0.124,0.186,0.271,0.186,0.439v6.875c0,0.17-0.062,0.316-0.186,0.439   c-0.124,0.124-0.271,0.186-0.439,0.186c-0.169,0-0.316-0.062-0.439-0.186c-0.124-0.123-0.186-0.27-0.186-0.439V9.965   C14.555,9.796,14.617,9.649,14.741,9.525z"
       id="path2" />
  </g>
</svg>
