<?xml version="1.0" encoding="UTF-8" standalone="no"?>
<svg
   aria-hidden="true"
   focusable="false"
   role="presentation"
   className="icon icon-theme-197"
   viewBox="0 0 24 24"
   version="1.1"
   id="svg6"
   sodipodi:docname="phone.svg"
   xmlns:inkscape="http://www.inkscape.org/namespaces/inkscape"
   xmlns:sodipodi="http://sodipodi.sourceforge.net/DTD/sodipodi-0.dtd"
   xmlns="http://www.w3.org/2000/svg"
   xmlns:svg="http://www.w3.org/2000/svg">
  <defs
     id="defs10" />
  <sodipodi:namedview
     id="namedview8"
     pagecolor="#ffffff"
     bordercolor="#000000"
     borderopacity="0.25"
     inkscape:showpageshadow="2"
     inkscape:pageopacity="0.0"
     inkscape:pagecheckerboard="0"
     inkscape:deskcolor="#d1d1d1" />
  <g
     id="g4">
    <path
       d="M17.625,21.729c-2.148,0-4.174-0.41-6.074-1.23c-1.901-0.82-3.559-1.937-4.971-3.35c-1.413-1.413-2.529-3.069-3.35-4.971   S2,8.253,2,6.104C2,6.026,2.016,5.948,2.049,5.87c0.032-0.078,0.074-0.149,0.127-0.215L5.301,2.53   C5.431,2.413,5.58,2.354,5.75,2.354c0.169,0,0.318,0.059,0.449,0.176l4.375,4.375c0.117,0.13,0.176,0.28,0.176,0.449   s-0.059,0.319-0.176,0.449l-2.695,2.676l5.371,5.371l2.676-2.695c0.13-0.117,0.279-0.176,0.449-0.176   c0.169,0,0.318,0.059,0.449,0.176l4.375,4.375c0.117,0.13,0.176,0.28,0.176,0.449s-0.059,0.319-0.176,0.449l-3.125,3.125   c-0.065,0.052-0.137,0.094-0.215,0.127C17.781,21.713,17.703,21.729,17.625,21.729z M5.75,3.858l-2.5,2.5   c0.039,1.927,0.433,3.74,1.182,5.439c0.748,1.699,1.761,3.187,3.037,4.463c1.275,1.276,2.764,2.288,4.463,3.037   s3.512,1.143,5.439,1.182l2.5-2.5l-3.496-3.496l-2.676,2.695c-0.131,0.117-0.28,0.176-0.449,0.176c-0.17,0-0.319-0.059-0.449-0.176   l-6.25-6.25c-0.117-0.13-0.176-0.28-0.176-0.449s0.059-0.319,0.176-0.449l2.695-2.676L5.75,3.858z"
       id="path2" />
  </g>
</svg>
